<svg width="67" height="19" viewBox="0 0 67 19" fill="none" xmlns="http://www.w3.org/2000/svg">
<path d="M5.528 13.968H10.664V18H0.2V1.008H5.528V13.968ZM20.6206 18.168C19.0206 18.168 17.5486 17.792 16.2046 17.04C14.8766 16.288 13.8206 15.248 13.0366 13.92C12.2526 12.592 11.8606 11.096 11.8606 9.432C11.8606 7.768 12.2526 6.272 13.0366 4.944C13.8206 3.616 14.8766 2.584 16.2046 1.848C17.5486 1.096 19.0206 0.719999 20.6206 0.719999C22.2206 0.719999 23.6846 1.096 25.0126 1.848C26.3406 2.584 27.3886 3.616 28.1566 4.944C28.9406 6.272 29.3326 7.768 29.3326 9.432C29.3326 11.096 28.9406 12.592 28.1566 13.92C27.3886 15.248 26.3326 16.288 24.9886 17.04C23.6606 17.792 22.2046 18.168 20.6206 18.168ZM20.6206 13.2C21.6766 13.2 22.4926 12.864 23.0686 12.192C23.6446 11.504 23.9326 10.584 23.9326 9.432C23.9326 8.264 23.6446 7.344 23.0686 6.672C22.4926 5.984 21.6766 5.64 20.6206 5.64C19.5486 5.64 18.7246 5.984 18.1486 6.672C17.5726 7.344 17.2846 8.264 17.2846 9.432C17.2846 10.584 17.5726 11.504 18.1486 12.192C18.7246 12.864 19.5486 13.2 20.6206 13.2ZM41.6707 6.816C41.4627 6.48 41.1667 6.224 40.7827 6.048C40.3987 5.856 39.9347 5.76 39.3907 5.76C38.3667 5.76 37.5747 6.096 37.0147 6.768C36.4547 7.424 36.1747 8.328 36.1747 9.48C36.1747 10.808 36.4867 11.8 37.1107 12.456C37.7347 13.112 38.6947 13.44 39.9907 13.44C41.2227 13.44 42.2147 12.944 42.9667 11.952H38.7187V8.184H47.3827V13.512C46.6467 14.776 45.6307 15.864 44.3347 16.776C43.0387 17.672 41.3987 18.12 39.4147 18.12C37.6547 18.12 36.1187 17.76 34.8067 17.04C33.5107 16.304 32.5107 15.28 31.8067 13.968C31.1187 12.656 30.7747 11.16 30.7747 9.48C30.7747 7.8 31.1187 6.304 31.8067 4.992C32.5107 3.68 33.5107 2.664 34.8067 1.944C36.1027 1.208 37.6227 0.839999 39.3667 0.839999C41.5907 0.839999 43.3987 1.376 44.7907 2.448C46.1987 3.52 47.0307 4.976 47.2867 6.816H41.6707ZM57.5816 18.168C55.9816 18.168 54.5096 17.792 53.1656 17.04C51.8376 16.288 50.7816 15.248 49.9976 13.92C49.2136 12.592 48.8216 11.096 48.8216 9.432C48.8216 7.768 49.2136 6.272 49.9976 4.944C50.7816 3.616 51.8376 2.584 53.1656 1.848C54.5096 1.096 55.9816 0.719999 57.5816 0.719999C59.1816 0.719999 60.6456 1.096 61.9736 1.848C63.3016 2.584 64.3496 3.616 65.1176 4.944C65.9016 6.272 66.2936 7.768 66.2936 9.432C66.2936 11.096 65.9016 12.592 65.1176 13.92C64.3496 15.248 63.2936 16.288 61.9496 17.04C60.6216 17.792 59.1656 18.168 57.5816 18.168ZM57.5816 13.2C58.6376 13.2 59.4536 12.864 60.0296 12.192C60.6056 11.504 60.8936 10.584 60.8936 9.432C60.8936 8.264 60.6056 7.344 60.0296 6.672C59.4536 5.984 58.6376 5.64 57.5816 5.64C56.5096 5.64 55.6856 5.984 55.1096 6.672C54.5336 7.344 54.2456 8.264 54.2456 9.432C54.2456 10.584 54.5336 11.504 55.1096 12.192C55.6856 12.864 56.5096 13.2 57.5816 13.2Z" fill="#0F0A0A"/>
</svg>
